<mxfile host="app.diagrams.net" modified="2023-04-21T20:44:28.283Z" agent="Mozilla/5.0 (Macintosh; Intel Mac OS X 10_15_7) AppleWebKit/537.36 (KHTML, like Gecko) Chrome/112.0.0.0 Safari/537.36" etag="l_j7Z1-tvq37_leG5Bth" version="21.1.2" type="device">
  <diagram name="Page-1" id="bF-Du0buVxMmUe_wjS7Q">
    <mxGraphModel dx="1038" dy="607" grid="1" gridSize="10" guides="1" tooltips="1" connect="1" arrows="1" fold="1" page="1" pageScale="1" pageWidth="850" pageHeight="1100" math="0" shadow="0">
      <root>
        <mxCell id="0" />
        <mxCell id="1" parent="0" />
        <mxCell id="I3tAFXT8pUodbb8j57Cl-2" value="" style="rounded=0;whiteSpace=wrap;html=1;fillColor=#dae8fc;strokeColor=#000000;" vertex="1" parent="1">
          <mxGeometry x="150" y="50" width="440" height="30" as="geometry" />
        </mxCell>
        <mxCell id="I3tAFXT8pUodbb8j57Cl-3" value="" style="rounded=0;whiteSpace=wrap;html=1;fillColor=#dae8fc;strokeColor=#000000;" vertex="1" parent="1">
          <mxGeometry x="150" y="220" width="440" height="30" as="geometry" />
        </mxCell>
        <mxCell id="I3tAFXT8pUodbb8j57Cl-4" value="" style="rounded=0;whiteSpace=wrap;html=1;fillColor=#dae8fc;strokeColor=#000000;" vertex="1" parent="1">
          <mxGeometry x="150" y="300" width="440" height="30" as="geometry" />
        </mxCell>
        <mxCell id="I3tAFXT8pUodbb8j57Cl-5" value="" style="endArrow=none;html=1;rounded=0;" edge="1" parent="1">
          <mxGeometry width="50" height="50" relative="1" as="geometry">
            <mxPoint y="170" as="sourcePoint" />
            <mxPoint x="630" y="170" as="targetPoint" />
          </mxGeometry>
        </mxCell>
        <mxCell id="I3tAFXT8pUodbb8j57Cl-6" value="1 MB of New Data" style="rounded=0;whiteSpace=wrap;html=1;fillColor=#f8cecc;strokeColor=#000000;" vertex="1" parent="1">
          <mxGeometry x="330" y="110" width="140" height="30" as="geometry" />
        </mxCell>
        <mxCell id="I3tAFXT8pUodbb8j57Cl-7" value="" style="rounded=0;whiteSpace=wrap;html=1;fillColor=#f8cecc;strokeColor=#000000;" vertex="1" parent="1">
          <mxGeometry x="330" y="300" width="140" height="30" as="geometry" />
        </mxCell>
        <mxCell id="I3tAFXT8pUodbb8j57Cl-8" value="Live Version" style="text;html=1;strokeColor=none;fillColor=none;align=left;verticalAlign=middle;whiteSpace=wrap;rounded=0;fontStyle=1" vertex="1" parent="1">
          <mxGeometry x="20" y="300" width="130" height="30" as="geometry" />
        </mxCell>
        <mxCell id="I3tAFXT8pUodbb8j57Cl-9" value="Snapshot Version" style="text;html=1;strokeColor=none;fillColor=none;align=left;verticalAlign=middle;whiteSpace=wrap;rounded=0;fontStyle=1" vertex="1" parent="1">
          <mxGeometry x="20" y="220" width="130" height="30" as="geometry" />
        </mxCell>
        <mxCell id="I3tAFXT8pUodbb8j57Cl-11" value="4 MB" style="text;html=1;strokeColor=none;fillColor=none;align=center;verticalAlign=middle;whiteSpace=wrap;rounded=0;" vertex="1" parent="1">
          <mxGeometry x="570" y="268" width="40" height="30" as="geometry" />
        </mxCell>
        <mxCell id="I3tAFXT8pUodbb8j57Cl-12" value="0 MB" style="text;html=1;strokeColor=none;fillColor=none;align=center;verticalAlign=middle;whiteSpace=wrap;rounded=0;" vertex="1" parent="1">
          <mxGeometry x="130" y="268" width="40" height="30" as="geometry" />
        </mxCell>
        <mxCell id="I3tAFXT8pUodbb8j57Cl-13" value="4 MB" style="text;html=1;strokeColor=none;fillColor=none;align=center;verticalAlign=middle;whiteSpace=wrap;rounded=0;" vertex="1" parent="1">
          <mxGeometry x="570" y="188" width="40" height="30" as="geometry" />
        </mxCell>
        <mxCell id="I3tAFXT8pUodbb8j57Cl-14" value="0 MB" style="text;html=1;strokeColor=none;fillColor=none;align=center;verticalAlign=middle;whiteSpace=wrap;rounded=0;" vertex="1" parent="1">
          <mxGeometry x="130" y="188" width="40" height="30" as="geometry" />
        </mxCell>
        <mxCell id="I3tAFXT8pUodbb8j57Cl-15" value="4 MB" style="text;html=1;strokeColor=none;fillColor=none;align=center;verticalAlign=middle;whiteSpace=wrap;rounded=0;" vertex="1" parent="1">
          <mxGeometry x="570" y="18" width="40" height="30" as="geometry" />
        </mxCell>
        <mxCell id="I3tAFXT8pUodbb8j57Cl-16" value="0 MB" style="text;html=1;strokeColor=none;fillColor=none;align=center;verticalAlign=middle;whiteSpace=wrap;rounded=0;" vertex="1" parent="1">
          <mxGeometry x="130" y="18" width="40" height="30" as="geometry" />
        </mxCell>
        <mxCell id="I3tAFXT8pUodbb8j57Cl-17" value="Pre-Snapshot" style="text;html=1;strokeColor=none;fillColor=none;align=left;verticalAlign=middle;whiteSpace=wrap;rounded=0;fontStyle=1" vertex="1" parent="1">
          <mxGeometry x="20" y="50" width="130" height="30" as="geometry" />
        </mxCell>
        <mxCell id="I3tAFXT8pUodbb8j57Cl-18" value="Post-Snapshot" style="text;html=1;strokeColor=none;fillColor=none;align=left;verticalAlign=middle;whiteSpace=wrap;rounded=0;fontStyle=1" vertex="1" parent="1">
          <mxGeometry x="20" y="110" width="130" height="30" as="geometry" />
        </mxCell>
        <mxCell id="I3tAFXT8pUodbb8j57Cl-19" value="" style="endArrow=none;html=1;rounded=0;" edge="1" parent="1">
          <mxGeometry width="50" height="50" relative="1" as="geometry">
            <mxPoint x="150" y="80" as="sourcePoint" />
            <mxPoint x="150" y="40" as="targetPoint" />
          </mxGeometry>
        </mxCell>
        <mxCell id="I3tAFXT8pUodbb8j57Cl-20" value="" style="endArrow=none;html=1;rounded=0;" edge="1" parent="1">
          <mxGeometry width="50" height="50" relative="1" as="geometry">
            <mxPoint x="150" y="250" as="sourcePoint" />
            <mxPoint x="150" y="210" as="targetPoint" />
          </mxGeometry>
        </mxCell>
        <mxCell id="I3tAFXT8pUodbb8j57Cl-21" value="" style="endArrow=none;html=1;rounded=0;" edge="1" parent="1">
          <mxGeometry width="50" height="50" relative="1" as="geometry">
            <mxPoint x="150" y="330" as="sourcePoint" />
            <mxPoint x="150" y="290" as="targetPoint" />
          </mxGeometry>
        </mxCell>
        <mxCell id="I3tAFXT8pUodbb8j57Cl-22" value="" style="endArrow=none;html=1;rounded=0;" edge="1" parent="1">
          <mxGeometry width="50" height="50" relative="1" as="geometry">
            <mxPoint x="590" y="330" as="sourcePoint" />
            <mxPoint x="590" y="290" as="targetPoint" />
          </mxGeometry>
        </mxCell>
        <mxCell id="I3tAFXT8pUodbb8j57Cl-23" value="" style="endArrow=none;html=1;rounded=0;" edge="1" parent="1">
          <mxGeometry width="50" height="50" relative="1" as="geometry">
            <mxPoint x="590" y="250" as="sourcePoint" />
            <mxPoint x="590" y="210" as="targetPoint" />
          </mxGeometry>
        </mxCell>
        <mxCell id="I3tAFXT8pUodbb8j57Cl-24" value="" style="endArrow=none;html=1;rounded=0;" edge="1" parent="1">
          <mxGeometry width="50" height="50" relative="1" as="geometry">
            <mxPoint x="590" y="80" as="sourcePoint" />
            <mxPoint x="590" y="40" as="targetPoint" />
          </mxGeometry>
        </mxCell>
      </root>
    </mxGraphModel>
  </diagram>
</mxfile>
